<svg width="162" height="160" viewBox="0 0 162 160" fill="none" xmlns="http://www.w3.org/2000/svg">
<path d="M79.7927 1.70711C80.2454 1.25436 80.8595 1 81.4998 1V1C82.1401 1 82.7541 1.25435 83.2069 1.70711L161.147 79.6472C161.373 79.8731 161.5 80.1795 161.5 80.4989V80.4989C161.5 80.8196 161.372 81.1271 161.144 81.3532L83.2042 158.8C82.753 159.248 82.1428 159.5 81.5068 159.5V159.5C80.8625 159.5 80.2451 159.242 79.7925 158.783L46.9647 125.512C45.0475 123.568 45.058 120.442 46.9882 118.512V118.512C48.9277 116.572 52.0723 116.572 54.0117 118.512L80.2927 144.793C80.4253 144.926 80.4998 145.105 80.4998 145.293V145.293C80.4998 145.683 80.8164 146 81.2069 146H81.7938C82.1837 146 82.4998 145.684 82.4998 145.294V145.294C82.4998 145.106 82.5749 144.925 82.7085 144.793L146.689 81.3083C146.888 81.1108 147.157 81 147.437 81V81C148.024 81 148.5 80.5244 148.5 79.9377L148.5 79.0625C148.5 78.4757 148.024 78 147.437 78V78C147.157 78 146.888 77.8892 146.689 77.6917L82.8131 14.3107C82.6127 14.1118 82.5 13.8412 82.5 13.559V13.5C82.5 12.9477 82.0523 12.5 81.5 12.5V12.5C80.9477 12.5 80.5 12.9477 80.5 13.5V13.568C80.5 13.8451 80.3923 14.1113 80.1997 14.3105L54.7244 40.6493C52.7227 42.7189 49.3772 42.6275 47.4914 40.4516V40.4516C45.8059 38.5068 45.9099 35.59 47.7297 33.7702L79.7927 1.70711Z" fill="#C5AB50"/>
<path d="M43.1655 53.7715C45.2561 51.7151 45.2118 48.3311 43.068 46.3302V46.3302C41.0669 44.4625 37.9546 44.4852 35.9809 46.3819L1.65001 79.3753C1.26337 79.7469 1.1633 80.3267 1.40304 80.8064V80.8064C1.46704 80.9345 1.553 81.0503 1.65702 81.1487L34.9856 112.676C36.9422 114.526 40.0163 114.484 41.9207 112.579V112.579C43.8873 110.613 43.8592 107.416 41.8584 105.484L16.7068 81.1999C16.574 81.0717 16.3966 81 16.2121 81H15.9998C15.7237 81 15.4998 80.7761 15.4998 80.5V80.5C15.4998 80.2239 15.7237 80 15.9998 80H16.2093C16.3955 80 16.5742 79.9268 16.7069 79.7963L43.1655 53.7715Z" fill="#C5AB50"/>
<path fill-rule="evenodd" clip-rule="evenodd" d="M81.4998 44C80.8595 44 80.2454 44.2544 79.7927 44.7071L46.2069 78.2929C45.7541 78.7456 45.4998 79.3597 45.4998 80V80C45.4998 80.6403 45.7541 81.2544 46.2069 81.7071L79.7927 115.293C80.2454 115.746 80.8595 116 81.4998 116V116C82.1401 116 82.7541 115.746 83.2069 115.293L116.793 81.7071C117.245 81.2544 117.5 80.6403 117.5 80V80C117.5 79.3597 117.245 78.7456 116.793 78.2929L83.2069 44.7071C82.7541 44.2544 82.1401 44 81.4998 44V44ZM79.8087 57.2232C80.2501 56.7613 80.8612 56.5 81.5001 56.5V56.5C82.1387 56.5 82.7494 56.761 83.1908 57.2224L93.4998 68L103.657 78.6414C103.877 78.8716 104 79.1776 104 79.4958V79.4958C104 79.819 103.873 80.1294 103.647 80.3606L83.1987 101.285C82.7518 101.742 82.1393 102 81.4998 102V102C80.8603 102 80.2478 101.742 79.8009 101.285L59.3521 80.3605C59.1262 80.1294 58.9998 79.8191 58.9998 79.496V79.496C58.9998 79.1776 59.1225 78.8716 59.3424 78.6414L79.8087 57.2232ZM85.4998 79C85.4998 76.7909 83.7089 75 81.4998 75V75C79.2907 75 77.4998 76.7909 77.4998 79V79C77.4998 81.2091 79.2907 83 81.4998 83V83C83.7089 83 85.4998 81.2091 85.4998 79V79Z" fill="#C5AB50"/>
<path d="M131.947 38.447C133.909 40.4093 137.091 40.4093 139.053 38.447V38.447C140.973 36.5266 141.02 33.4279 139.159 31.4502L129.955 21.6715C128.027 19.6226 124.823 19.4673 122.705 21.3201V21.3201C120.429 23.3116 120.313 26.813 122.451 28.9515L131.947 38.447Z" fill="#C5AB50"/>
<path d="M34.2498 22.25C36.0447 20.4551 38.9549 20.4551 40.7498 22.25V22.25C42.5447 24.0449 42.5447 26.9551 40.7498 28.75L31.2498 38.25C29.4549 40.0449 26.5447 40.0449 24.7498 38.25V38.25C22.9549 36.4551 22.9549 33.5449 24.7498 31.75L34.2498 22.25Z" fill="#C5AB50"/>
<path d="M24.5754 119.468C22.3731 121.376 22.2526 124.753 24.3134 126.814L33.3084 135.809C35.3471 137.847 38.6525 137.847 40.6912 135.809V135.809C42.7751 133.725 42.7221 130.33 40.5741 128.312L31.3026 119.603C29.4262 117.84 26.5208 117.782 24.5754 119.468V119.468Z" fill="#C5AB50"/>
<path d="M139.5 120C137.567 118.067 134.433 118.067 132.5 120L123.5 129C121.567 130.933 121.567 134.067 123.5 136V136C125.433 137.933 128.567 137.933 130.5 136L139.5 127C141.433 125.067 141.433 121.933 139.5 120V120Z" fill="#C5AB50"/>
<path d="M79.7927 1.70711C80.2454 1.25436 80.8595 1 81.4998 1V1C82.1401 1 82.7541 1.25435 83.2069 1.70711L161.147 79.6472C161.373 79.8731 161.5 80.1795 161.5 80.4989V80.4989C161.5 80.8196 161.372 81.1271 161.144 81.3532L83.2042 158.8C82.753 159.248 82.1428 159.5 81.5068 159.5V159.5C80.8625 159.5 80.2451 159.242 79.7925 158.783L46.9647 125.512C45.0475 123.568 45.058 120.442 46.9882 118.512V118.512C48.9277 116.572 52.0723 116.572 54.0117 118.512L80.2927 144.793C80.4253 144.926 80.4998 145.105 80.4998 145.293V145.293C80.4998 145.683 80.8164 146 81.2069 146H81.7938C82.1837 146 82.4998 145.684 82.4998 145.294V145.294C82.4998 145.106 82.5749 144.925 82.7085 144.793L146.689 81.3083C146.888 81.1108 147.157 81 147.437 81V81C148.024 81 148.5 80.5244 148.5 79.9377L148.5 79.0625C148.5 78.4757 148.024 78 147.437 78V78C147.157 78 146.888 77.8892 146.689 77.6917L82.8131 14.3107C82.6127 14.1118 82.5 13.8412 82.5 13.559V13.5C82.5 12.9477 82.0523 12.5 81.5 12.5V12.5C80.9477 12.5 80.5 12.9477 80.5 13.5V13.568C80.5 13.8451 80.3923 14.1113 80.1997 14.3105L54.7244 40.6493C52.7227 42.7189 49.3772 42.6275 47.4914 40.4516V40.4516C45.8059 38.5068 45.9099 35.59 47.7297 33.7702L79.7927 1.70711Z" stroke="black"/>
<path d="M43.1655 53.7715C45.2561 51.7151 45.2118 48.3311 43.068 46.3302V46.3302C41.0669 44.4625 37.9546 44.4852 35.9809 46.3819L1.65001 79.3753C1.26337 79.7469 1.1633 80.3267 1.40304 80.8064V80.8064C1.46704 80.9345 1.553 81.0503 1.65702 81.1487L34.9856 112.676C36.9422 114.526 40.0163 114.484 41.9207 112.579V112.579C43.8873 110.613 43.8592 107.416 41.8584 105.484L16.7068 81.1999C16.574 81.0717 16.3966 81 16.2121 81H15.9998C15.7237 81 15.4998 80.7761 15.4998 80.5V80.5C15.4998 80.2239 15.7237 80 15.9998 80H16.2093C16.3955 80 16.5742 79.9268 16.7069 79.7963L43.1655 53.7715Z" stroke="black"/>
<path fill-rule="evenodd" clip-rule="evenodd" d="M81.4998 44C80.8595 44 80.2454 44.2544 79.7927 44.7071L46.2069 78.2929C45.7541 78.7456 45.4998 79.3597 45.4998 80V80C45.4998 80.6403 45.7541 81.2544 46.2069 81.7071L79.7927 115.293C80.2454 115.746 80.8595 116 81.4998 116V116C82.1401 116 82.7541 115.746 83.2069 115.293L116.793 81.7071C117.245 81.2544 117.5 80.6403 117.5 80V80C117.5 79.3597 117.245 78.7456 116.793 78.2929L83.2069 44.7071C82.7541 44.2544 82.1401 44 81.4998 44V44ZM79.8087 57.2232C80.2501 56.7613 80.8612 56.5 81.5001 56.5V56.5C82.1387 56.5 82.7494 56.761 83.1908 57.2224L93.4998 68L103.657 78.6414C103.877 78.8716 104 79.1776 104 79.4958V79.4958C104 79.819 103.873 80.1294 103.647 80.3606L83.1987 101.285C82.7518 101.742 82.1393 102 81.4998 102V102C80.8603 102 80.2478 101.742 79.8009 101.285L59.3521 80.3605C59.1262 80.1294 58.9998 79.8191 58.9998 79.496V79.496C58.9998 79.1776 59.1225 78.8716 59.3424 78.6414L79.8087 57.2232ZM85.4998 79C85.4998 76.7909 83.7089 75 81.4998 75V75C79.2907 75 77.4998 76.7909 77.4998 79V79C77.4998 81.2091 79.2907 83 81.4998 83V83C83.7089 83 85.4998 81.2091 85.4998 79V79Z" stroke="black"/>
<path d="M131.947 38.447C133.909 40.4093 137.091 40.4093 139.053 38.447V38.447C140.973 36.5266 141.02 33.4279 139.159 31.4502L129.955 21.6715C128.027 19.6226 124.823 19.4673 122.705 21.3201V21.3201C120.429 23.3116 120.313 26.813 122.451 28.9515L131.947 38.447Z" stroke="black"/>
<path d="M34.2498 22.25C36.0447 20.4551 38.9549 20.4551 40.7498 22.25V22.25C42.5447 24.0449 42.5447 26.9551 40.7498 28.75L31.2498 38.25C29.4549 40.0449 26.5447 40.0449 24.7498 38.25V38.25C22.9549 36.4551 22.9549 33.5449 24.7498 31.75L34.2498 22.25Z" stroke="black"/>
<path d="M24.5754 119.468C22.3731 121.376 22.2526 124.753 24.3134 126.814L33.3084 135.809C35.3471 137.847 38.6525 137.847 40.6912 135.809V135.809C42.7751 133.725 42.7221 130.33 40.5741 128.312L31.3026 119.603C29.4262 117.84 26.5208 117.782 24.5754 119.468V119.468Z" stroke="black"/>
<path d="M139.5 120C137.567 118.067 134.433 118.067 132.5 120L123.5 129C121.567 130.933 121.567 134.067 123.5 136V136C125.433 137.933 128.567 137.933 130.5 136L139.5 127C141.433 125.067 141.433 121.933 139.5 120V120Z" stroke="black"/>
</svg>
